Coordinates
version=1
nRows=8
nColumns=40
inDegrees=yes

Units are S.I. units (second, meters, Newtons, ...)
Angles are in degrees.

endheader
time	pelvis_tilt	pelvis_list	pelvis_rotation	pelvis_tx	pelvis_ty	pelvis_tz	hip_flexion_r	hip_adduction_r	hip_rotation_r	knee_angle_r	knee_angle_r_beta	ankle_angle_r	subtalar_angle_r	mtp_angle_r	hip_flexion_l	hip_adduction_l	hip_rotation_l	knee_angle_l	knee_angle_l_beta	ankle_angle_l	subtalar_angle_l	mtp_angle_l	lumbar_extension	lumbar_bending	lumbar_rotation	arm_flex_r	arm_add_r	arm_rot_r	elbow_flex_r	pro_sup_r	wrist_flex_r	wrist_dev_r	arm_flex_l	arm_add_l	arm_rot_l	elbow_flex_l	pro_sup_l	wrist_flex_l	wrist_dev_l
     44.55000000	     -8.57701948	     -5.72755726	      0.29787905	      1.02711291	      0.92825288	      0.38599672	     35.59046425	     -6.87917708	     -6.59502157	     69.35624567	     69.35624567	      1.64125672	    -18.18051294	      5.91615322	     18.97068305	     -4.45965001	     -6.07984390	     22.73211765	     22.73211765	     15.11023074	     -6.93607189	      1.74752656	    -12.10841610	      5.62374220	      1.45068974	      3.62984809	    -14.59795623	      5.85191325	     30.13922202	     46.28585739	      0.00000000	      0.00000000	      6.49860776	    -15.99662356	     -6.20315422	     63.81164904	     46.81286998	      0.00000000	      0.00000000
     44.56214286	     -8.52364682	     -5.65067848	      0.16417250	      1.02610486	      0.92913711	      0.38575759	     36.58002379	     -6.90735291	     -6.36312575	     68.53846074	     68.53846074	      1.66091270	    -18.08870772	      5.87431131	     18.01547325	     -4.38225784	     -6.37840330	     21.99049371	     21.99049371	     15.28724210	     -6.53465659	      1.86971440	    -12.20651975	      5.54814459	      1.51351299	      2.05747638	    -14.78791772	      5.93426417	     29.23663550	     46.30086277	      0.00000000	      0.00000000	      7.62750646	    -16.32364584	     -6.51757273	     65.05259371	     46.87076935	      0.00000000	      0.00000000
     44.57428571	     -8.45441551	     -5.57615241	      0.06802733	      1.02506987	      0.92983875	      0.38553495	     37.47571999	     -6.96678256	     -6.20236418	     67.62975423	     67.62975423	      1.65355603	    -17.95473778	      5.64441436	     17.15691577	     -4.35430695	     -6.82123549	     21.45335487	     21.45335487	     15.50926149	     -5.87785573	      1.80438160	    -12.32291911	      5.44883832	      1.53463050	      0.39984501	    -14.99430023	      5.92471041	     28.50344903	     46.31321197	      0.00000000	      0.00000000	      8.61991376	    -16.72647047	     -6.80822586	     66.82714932	     46.93745491	      0.00000000	      0.00000000
     44.58642857	     -8.40108227	     -5.52788113	     -0.01470393	      1.02403705	      0.93044595	      0.38536761	     38.29105074	     -6.99678246	     -6.09182008	     66.57179723	     66.57179723	      1.56651988	    -17.83135941	      5.37558224	     16.34293885	     -4.36079065	     -7.27581025	     20.94705852	     20.94705852	     15.74062898	     -5.13529883	      1.66232201	    -12.41964213	      5.37865023	      1.42139671	     -1.17687646	    -15.15585068	      5.83508776	     28.01100414	     46.32137277	      0.00000000	      0.00000000	      9.45169992	    -17.20262172	     -7.09173501	     68.69295751	     47.00528172	      0.00000000	      0.00000000
     44.59857143	     -8.37342491	     -5.48180029	     -0.06455926	      1.02299128	      0.93100291	      0.38526520	     39.01783828	     -7.01580584	     -6.02773884	     65.32380500	     65.32380500	      1.47902837	    -17.67326688	      5.15350771	     15.58431095	     -4.36838251	     -7.71559418	     20.45921382	     20.45921382	     15.92209683	     -4.40453106	      1.50305401	    -12.49490591	      5.29904564	      1.26662846	     -2.68992189	    -15.32337687	      5.70752196	     27.65432224	     46.32746593	      0.00000000	      0.00000000	     10.26401226	    -17.67363859	     -7.39542338	     70.46368333	     47.07231879	      0.00000000	      0.00000000
     44.61071429	     -8.36065706	     -5.45544716	     -0.08718043	      1.02189092	      0.93143238	      0.38529724	     39.65399592	     -7.00865432	     -6.02660758	     63.89754689	     63.89754689	      1.36594699	    -17.51311644	      4.87766953	     14.89870462	     -4.41730752	     -8.15750740	     20.05738508	     20.05738508	     16.08661660	     -3.60421789	      1.24273126	    -12.54955833	      5.22345164	      1.07094884	     -4.16454151	    -15.45360186	      5.49229929	     27.52191508	     46.32961541	      0.00000000	      0.00000000	     11.01869689	    -18.19296069	     -7.71675239	     72.34104158	     47.14507156	      0.00000000	      0.00000000
     44.62285714	     -8.37693775	     -5.40757230	     -0.11569019	      1.02080627	      0.93180634	      0.38545777	     40.18330250	     -6.99312926	     -6.05403607	     62.21951549	     62.21951549	      1.29374590	    -17.30283407	      4.64862533	     14.22845934	     -4.43982023	     -8.60684259	     19.61327895	     19.61327895	     16.22564775	     -2.82246193	      0.96473822	    -12.58755961	      5.12466916	      0.88332041	     -5.57747800	    -15.58419905	      5.26141828	     27.49929521	     46.32879935	      0.00000000	      0.00000000	     11.79770849	    -18.58518101	     -8.01483887	     74.06029450	     47.21318467	      0.00000000	      0.00000000
     44.63500000	     -8.42678816	     -5.35103916	     -0.11756472	      1.01967224	      0.93208262	      0.38571939	     40.61714142	     -6.97226011	     -6.13740421	     60.29470189	     60.29470189	      1.21946973	    -17.02329848	      4.48463035	     13.63223760	     -4.45706154	     -9.01119988	     19.21392109	     19.21392109	     16.30003724	     -2.08052968	      0.67612502	    -12.59630587	      4.99868533	      0.68200464	     -6.89603170	    -15.70739534	      5.03502353	     27.57625160	     46.32462318	      0.00000000	      0.00000000	     12.59064563	    -18.97389508	     -8.28487614	     75.55690764	     47.27353165	      0.00000000	      0.00000000
